<svg id="Capa_1" enable-background="new 0 0 512 512" height="512" viewBox="0 0 512 512" width="512" xmlns="http://www.w3.org/2000/svg"><g id="XMLID_2374_"><g id="XMLID_2124_"><path id="XMLID_1627_" d="m54 438v24c0 11.046 8.954 20 20 20h408c11.046 0 20-8.954 20-20v-324c0-11.046-8.954-20-20-20h-24z" fill="#adeefa"/><path id="XMLID_1625_" d="m438 74h-408c-11.046 0-20 8.954-20 20v324c0 11.046 8.954 20 20 20h408c11.046 0 20-8.954 20-20v-324c0-11.046-8.954-20-20-20z" fill="#fff"/><path id="XMLID_1783_" d="m438 74h-408c-11.046 0-20 8.954-20 20v100h448v-100c0-11.046-8.954-20-20-20z" fill="#e67d97"/><g id="XMLID_1615_"><path id="XMLID_1621_" d="m86 118c-12.15 0-22-9.85-22-22v-44c0-12.15 9.85-22 22-22 12.15 0 22 9.85 22 22v44c0 12.15-9.85 22-22 22z" fill="#c7ebfa"/></g><g id="XMLID_1639_"><path id="XMLID_1643_" d="m234 118c-12.15 0-22-9.85-22-22v-44c0-12.15 9.85-22 22-22 12.15 0 22 9.85 22 22v44c0 12.15-9.85 22-22 22z" fill="#c7ebfa"/></g><g id="XMLID_1634_"><path id="XMLID_1636_" d="m382 118c12.15 0 22-9.85 22-22v-44c0-12.15-9.85-22-22-22-12.15 0-22 9.85-22 22v44c0 12.15 9.85 22 22 22z" fill="#c7ebfa"/></g><g id="XMLID_1610_"><path id="XMLID_1613_" d="m234 251.572 20.934 42.417 46.809 6.802-33.871 33.016 7.996 46.621-41.868-22.011-41.868 22.011 7.996-46.621-33.871-33.016 46.809-6.802z" fill="#f2cd69"/></g></g><g id="XMLID_707_"><g id="XMLID_708_"><path id="XMLID_713_" d="m482 108h-14v-14c0-16.542-13.458-30-30-30h-24v-12c0-17.645-14.355-32-32-32s-32 14.355-32 32v12h-84v-12c0-17.645-14.355-32-32-32s-32 14.355-32 32v12h-84v-12c0-17.645-14.355-32-32-32s-32 14.355-32 32v12h-24c-16.542 0-30 13.458-30 30v324c0 16.542 13.458 30 30 30h14v14c0 16.542 13.458 30 30 30h408c16.542 0 30-13.458 30-30v-324c0-16.542-13.458-30-30-30zm-112-56c0-6.617 5.383-12 12-12s12 5.383 12 12v44c0 6.617-5.383 12-12 12s-12-5.383-12-12zm-148 0c0-6.617 5.383-12 12-12s12 5.383 12 12v44c0 6.617-5.383 12-12 12s-12-5.383-12-12zm-148 0c0-6.617 5.383-12 12-12s12 5.383 12 12v44c0 6.617-5.383 12-12 12s-12-5.383-12-12zm-44 32h24v12c0 17.645 14.355 32 32 32s32-14.355 32-32v-12h84v12c0 17.645 14.355 32 32 32s32-14.355 32-32v-12h84v12c0 17.645 14.355 32 32 32s32-14.355 32-32v-12h24c5.514 0 10 4.486 10 10v90h-428v-90c0-5.514 4.486-10 10-10zm462 378c0 5.514-4.486 10-10 10h-408c-5.514 0-10-4.486-10-10v-14h125c5.523 0 10-4.478 10-10s-4.477-10-10-10h-159c-5.514 0-10-4.486-10-10v-214h428v214c0 5.514-4.486 10-10 10h-159c-5.523 0-10 4.478-10 10s4.477 10 10 10h159c16.542 0 30-13.458 30-30v-290h14c5.514 0 10 4.486 10 10z"/><path id="XMLID_710_" d="m271.214 389.279c1.463.769 3.06 1.148 4.652 1.148 2.073 0 4.137-.645 5.879-1.91 3.08-2.237 4.622-6.028 3.978-9.78l-7.107-41.439 30.107-29.347c2.726-2.657 3.707-6.631 2.531-10.251s-4.306-6.259-8.073-6.807l-41.607-6.045-18.607-37.703c-1.685-3.413-5.161-5.574-8.967-5.574-3.807 0-7.283 2.161-8.967 5.574l-18.607 37.703-41.607 6.045c-3.767.548-6.896 3.187-8.073 6.807-1.176 3.62-.195 7.594 2.531 10.251l30.107 29.347-7.107 41.439c-.644 3.752.898 7.543 3.978 9.78s7.163 2.532 10.531.762l37.214-19.565zm-65.8-27.132 4.571-26.65c.557-3.244-.519-6.554-2.876-8.851l-19.362-18.873 26.758-3.888c3.257-.474 6.073-2.52 7.529-5.471l11.966-24.246 11.966 24.247c1.457 2.951 4.272 4.997 7.529 5.471l26.758 3.888-19.362 18.873c-2.357 2.298-3.433 5.607-2.876 8.851l4.571 26.65-23.933-12.583c-1.456-.766-3.055-1.149-4.653-1.149-1.599 0-3.197.383-4.653 1.149z"/><path id="XMLID_709_" d="m234 428c-2.63 0-5.21 1.069-7.07 2.93-1.86 1.86-2.93 4.44-2.93 7.07s1.07 5.21 2.93 7.069c1.86 1.86 4.44 2.931 7.07 2.931s5.21-1.07 7.07-2.931c1.86-1.859 2.93-4.439 2.93-7.069s-1.07-5.21-2.93-7.07c-1.86-1.861-4.44-2.93-7.07-2.93z"/></g></g></g></svg>