<svg id="Capa_1" enable-background="new 0 0 512 512" height="512" viewBox="0 0 512 512" width="512" xmlns="http://www.w3.org/2000/svg"><g><g><path d="m472 151h-90v-120h-372v270c0 33.14 26.86 60 60 60h216v-30h30c16.57 0 30 13.43 30 30h96c33.14-.01 60-26.86 60-60v-120c0-16.57-13.43-30-30-30z" fill="#eefaff"/><path d="m502 181v120c0 33.14-26.86 59.99-60 60h-.01c-34.402 0-58.368-28.446-59.91-60h59.92v-120c0-16.57 13.43-30 30-30s30 13.43 30 30z" fill="#99ebfa"/><path d="m286 451c0 16.57-13.43 30-30 30h-120c-16.57 0-30-13.43-30-30 0-10 0-170 0-180h180z" fill="#ff7d97"/><path d="m76 151h60v60h-60z" fill="#99ebfa"/></g><g><path d="m316 201h-120c-5.523 0-10 4.478-10 10s4.477 10 10 10h120c5.522 0 10-4.478 10-10s-4.478-10-10-10z"/><path d="m316 141h-120c-5.523 0-10 4.478-10 10s4.477 10 10 10h120c5.522 0 10-4.478 10-10s-4.478-10-10-10z"/><path d="m76 141c-5.523 0-10 4.478-10 10v60c0 5.522 4.477 10 10 10h60c5.523 0 10-4.478 10-10v-60c0-5.522-4.477-10-10-10zm50 60h-40v-40h40z"/><path d="m316 81h-240c-5.523 0-10 4.478-10 10s4.477 10 10 10h240c5.522 0 10-4.478 10-10s-4.478-10-10-10z"/><circle cx="196" cy="31.001" r="10"/><path d="m472 141h-80v-110c0-5.522-4.478-10-10-10h-141c-5.523 0-10 4.478-10 10s4.477 10 10 10h131v256.79c0 21.748 9.296 40.743 21.732 53.21h-38.998c-4.452-17.233-20.13-30-38.734-30h-20v-50c0-5.522-4.478-10-10-10h-180c-5.523 0-10 4.478-10 10v80h-26c-27.57 0-50-22.43-50-50v-260h131c5.523 0 10-4.478 10-10s-4.477-10-10-10h-141c-5.523 0-10 4.478-10 10v270c0 38.598 31.402 70 70 70h26v80c0 22.056 17.944 40 40 40h120c22.056 0 40-17.944 40-40v-20.726c30.608-4.399 54.875-28.666 59.274-59.274h86.716.004.009c38.597-.012 69.997-31.413 69.997-70v-120c0-22.056-17.944-40-40-40zm-34.618 20c-3.415 5.888-5.382 12.717-5.382 20v110h-40v-130zm-161.382 290c0 11.028-8.972 20-20 20h-120c-11.028 0-20-8.972-20-20v-170h160zm20-41.006v-68.994h20c11.028 0 20 8.972 20 20 0 24.146-17.205 44.348-40 48.994zm196-108.994c0 27.562-22.432 49.992-50.01 50-24.671 0-43.098-17.642-48.424-40h48.434c5.522 0 10-4.478 10-10v-120c0-11.028 8.972-20 20-20s20 8.972 20 20z"/></g></g></svg>