<?xml version="1.0" encoding="iso-8859-1"?>
<!-- Generator: Adobe Illustrator 19.0.0, SVG Export Plug-In . SVG Version: 6.00 Build 0)  -->
<svg version="1.1" id="Layer_1" xmlns="http://www.w3.org/2000/svg" x="0px" y="0px" viewBox="0 0 504 434" style="enable-background:new 0 0 504 504;" xml:space="preserve">
<path style="fill:#DBD0C1;" d="M253.6,123.6c0,0.8-0.8,1.6-1.6,1.6l0,0c-0.8,0-1.6-0.8-1.6-1.6V70c0-0.8,0.8-1.6,1.6-1.6l0,0
	c0.8,0,1.6,0.8,1.6,1.6V123.6z"/>
<path style="fill:#E2D9CF;" d="M252.8,114.8c-28,22.4-73.6,64-73.6,96c0,32.8,30.4,62.4,73.6,64.8V114.8z"/>
<path style="fill:#EFE6DC;" d="M252.8,114.8c-28,22.4-73.6,64-73.6,96"/>
<path style="fill:#DBD0C1;" d="M251.2,114.8c28,22.4,73.6,64,73.6,96c0,32.8-30.4,62.4-73.6,64.8L251.2,114.8L251.2,114.8z"/>
<path style="fill:#CEC1B2;" d="M251.2,114.8c28,22.4,73.6,64,73.6,96"/>
<path style="fill:#FF9700;" d="M464.8,430.8C451.2,325.2,361.6,243.6,252,243.6S52.8,325.2,39.2,430.8H464.8z"/>
<path style="fill:#FF7900;" d="M464.8,430.8C451.2,325.2,361.6,243.6,252,243.6"/>
<path style="fill:#FFBC00;" d="M252,243.6c-109.6,0-199.2,81.6-212.8,188"/>
<g>
	<path style="fill:#A59486;" d="M344.8,224.4L344.8,224.4C344.8,223.6,344.8,223.6,344.8,224.4C344.8,223.6,344.8,223.6,344.8,224.4
		L344.8,224.4c-7.2,5.6-17.6,9.6-18.4,17.6v2.4V270h4v-15.2c0-3.2,2.4-6.4,6.4-6.4c3.2,0,6.4,2.4,6.4,6.4V270h3.2v-15.2
		c0-3.2,2.4-6.4,6.4-6.4s6.4,2.4,6.4,6.4V270h4v-25.6v-3.2C362.4,234,352,229.2,344.8,224.4z"/>
	<path style="fill:#A59486;" d="M159.2,224.4L159.2,224.4C159.2,223.6,159.2,223.6,159.2,224.4C159.2,223.6,159.2,223.6,159.2,224.4
		L159.2,224.4c-7.2,5.6-17.6,9.6-18.4,17.6v2.4V270h4v-15.2c0-3.2,2.4-6.4,6.4-6.4c3.2,0,6.4,2.4,6.4,6.4V270h3.2v-15.2
		c0-3.2,2.4-6.4,6.4-6.4s6.4,2.4,6.4,6.4V270h4v-25.6v-3.2C176.8,234,166.4,229.2,159.2,224.4z"/>
</g>
<path style="fill:#D1C4B4;" d="M373.6,421.2c0,1.6-0.8,2.4-2.4,2.4H132.8c-1.6,0-2.4-0.8-2.4-2.4V270.8c0-1.6,0.8-2.4,2.4-2.4h237.6
	c1.6,0,2.4,0.8,2.4,2.4v150.4H373.6z"/>
<path style="fill:#DBD0C1;" d="M346.4,421.2c0,1.6-0.8,2.4-1.6,2.4h-184c-0.8,0-1.6-0.8-1.6-2.4V270.8c0-1.6,0.8-2.4,1.6-2.4h184
	c0.8,0,1.6,0.8,1.6,2.4V421.2z"/>
<path style="fill:#C9BCAD;" d="M130.4,270.8c0-1.6,0.8-2.4,2.4-2.4h237.6c1.6,0,2.4,0.8,2.4,2.4v150.4c0,1.6-0.8,2.4-2.4,2.4"/>
<path style="fill:#D6C7B9;" d="M157.6,270.8v17.6l188,120V270.8c0-1.6-0.8-2.4-1.6-2.4H160C158.4,268.4,157.6,269.2,157.6,270.8z"/>
<path style="fill:#BCAEA2;" d="M180.8,330.8c0-7.2-10.4-11.2-16.8-16l0,0l0,0l0,0l0,0c-6.4,4.8-16.8,8.8-16.8,16c0,0.8,0,0.8,0,1.6
	v86.4H180v-86.4C180.8,332.4,180.8,331.6,180.8,330.8z"/>
<path style="fill:#A59486;" d="M164,321.2L164,321.2L164,321.2L164,321.2L164,321.2c-6.4,4.8-16,8.8-16.8,15.2v2.4v80H180v-80v-2.4
	C180,330,170.4,326,164,321.2z"/>
<g>
	<path style="fill:#7F7166;" d="M171.2,418.8v-23.2c0-4-3.2-7.2-7.2-7.2l0,0c-4,0-7.2,3.2-7.2,7.2v23.2H171.2z"/>
	<path style="fill:#7F7166;" d="M171.2,372.4v-23.2c0-4-3.2-7.2-7.2-7.2l0,0c-4,0-7.2,3.2-7.2,7.2v23.2H171.2z"/>
</g>
<rect x="136" y="371.6" style="fill:#E8DED1;" width="56.8" height="4.8"/>
<path style="fill:#BCAEA2;" d="M356,330.8c0-7.2-10.4-11.2-16.8-16l0,0l0,0l0,0l0,0c-6.4,4.8-16.8,8.8-16.8,16c0,0.8,0,0.8,0,1.6
	v86.4H356v-86.4C356,332.4,356,331.6,356,330.8z"/>
<path style="fill:#A59486;" d="M339.2,321.2L339.2,321.2L339.2,321.2L339.2,321.2L339.2,321.2c-6.4,4.8-16,8.8-16.8,15.2v2.4v80H356
	v-80v-2.4C355.2,330,345.6,326,339.2,321.2z"/>
<g>
	<path style="fill:#7F7166;" d="M346.4,418.8v-23.2c0-4-3.2-7.2-7.2-7.2h-0.8c-4,0-7.2,3.2-7.2,7.2v23.2H346.4z"/>
	<path style="fill:#7F7166;" d="M346.4,372.4v-23.2c0-4-3.2-7.2-7.2-7.2h-0.8c-4,0-7.2,3.2-7.2,7.2v23.2H346.4z"/>
</g>
<g>
	<rect x="311.2" y="371.6" style="fill:#E8DED1;" width="56.8" height="4.8"/>
	<path style="fill:#E8DED1;" d="M312,415.6c0,4-3.2,8-8,8H200c-4,0-8-3.2-8-8V250.8c0-4,3.2-8,8-8h104c4,0,8,3.2,8,8V415.6z"/>
</g>
<path style="fill:#EFE7DC;" d="M192,415.6V250.8c0-4,3.2-8,8-8"/>
<path style="fill:#E2D9CF;" d="M192,250.8c0-4,3.2-8,8-8h104c4,0,8,3.2,8,8v164.8c0,4-3.2,8-8,8"/>
<rect x="224.8" y="286" style="fill:#BCAEA2;" width="51.2" height="142.4"/>
<rect x="224.8" y="293.2" style="fill:#D3C3B4;" width="51.2" height="142.4"/>
<path style="fill:#BCAEA2;" d="M268.8,321.2c0-8-11.2-12-18.4-18.4l0,0l0,0l0,0l0,0c-7.2,5.6-18.4,10.4-18.4,18.4c0,0.8,0,1.6,0,1.6
	v96h36.8v-96C268.8,322,268.8,322,268.8,321.2z"/>
<path style="fill:#A59486;" d="M250.4,310L250.4,310L250.4,310L250.4,310L250.4,310c-7.2,5.6-17.6,9.6-18.4,17.6v2.4v88.8h36.8V330
	v-2.4C268,320.4,257.6,315.6,250.4,310z"/>
<g>
	<path style="fill:#7F7166;" d="M258.4,418.8v-26.4c0-4-3.2-8-8-8h-0.8c-4,0-8,3.2-8,8v26.4H258.4z"/>
	<path style="fill:#7F7166;" d="M258.4,367.6v-26.4c0-4-3.2-8-8-8h-0.8c-4,0-8,3.2-8,8v26.4H258.4z"/>
</g>
<g>
	<path style="fill:#DBD0C1;" d="M296.8,429.2H204v-164h92.8V429.2z M212,421.2h77.6v-148H212V421.2z"/>
	<path style="fill:#DBD0C1;" d="M63.2,425.2c0,4-19.2,7.2-22.4,7.2l0,0c-4,0-22.4-3.2-22.4-7.2l16-268c0-4,3.2-7.2,7.2-7.2l0,0
		c4,0,7.2,3.2,7.2,7.2L63.2,425.2z"/>
</g>
<path style="fill:#C4B8AB;" d="M40.8,150.8L40.8,150.8c4,0,7.2,3.2,7.2,7.2l16,268c0,4-19.2,7.2-22.4,7.2l0,0"/>
<g>
	<path style="fill:#DBD0C1;" d="M48.8,150.8c0,1.6-0.8,2.4-2.4,2.4H35.2c-1.6,0-2.4-0.8-2.4-2.4l0,0c0-1.6,0.8-2.4,2.4-2.4h10.4
		C47.2,148.4,48.8,149.2,48.8,150.8L48.8,150.8z"/>
	<path style="fill:#DBD0C1;" d="M36,152.4v-12c0-2.4,2.4-4.8,4.8-4.8c2.4,0,4.8,2.4,4.8,4.8v12h4v-20.8c0-4-3.2-8-8-8H40
		c-4,0-8,3.2-8,8v20.8H36z"/>
</g>
<path style="fill:#E8DED1;" d="M63.2,339.6c0,0.8-0.8,2.4-2.4,2.4h-40c-0.8,0-2.4-0.8-2.4-2.4l0,0c0-0.8,0.8-2.4,2.4-2.4h40.8
	C62.4,338,63.2,338.8,63.2,339.6L63.2,339.6z"/>
<g>
	<path style="fill:#F2EAE2;" d="M20.8,342c-0.8,0-2.4-0.8-2.4-2.4l0,0c0-0.8,0.8-2.4,2.4-2.4h40.8"/>
</g>
<path style="fill:#E8DED1;" d="M63.2,274c0,0.8-0.8,2.4-2.4,2.4h-40c-0.8,0-2.4-0.8-2.4-2.4l0,0c0-0.8,0.8-2.4,2.4-2.4h40.8
	C62.4,272.4,63.2,273.2,63.2,274L63.2,274z"/>
<g>
	<path style="fill:#F2EAE2;" d="M20.8,276.4c-0.8,0-2.4-0.8-2.4-2.4l0,0c0-0.8,0.8-2.4,2.4-2.4h40.8"/>
</g>
<path style="fill:#E8DED1;" d="M63.2,209.2c0,0.8-0.8,2.4-2.4,2.4h-40c-0.8,0-2.4-0.8-2.4-2.4l0,0c0-0.8,0.8-2.4,2.4-2.4h40.8
	C62.4,206.8,63.2,207.6,63.2,209.2L63.2,209.2z"/>
<g>
	<path style="fill:#F2EAE2;" d="M20.8,210.8c-0.8,0-2.4-0.8-2.4-2.4l0,0c0-0.8,0.8-2.4,2.4-2.4h40.8"/>
</g>
<path style="fill:#E8DED1;" d="M51.2,153.2c0,0.8-0.8,2.4-2.4,2.4H32c-0.8,0-2.4-0.8-2.4-2.4l0,0c0-0.8,0.8-2.4,2.4-2.4h16.8
	C50.4,150.8,51.2,152.4,51.2,153.2L51.2,153.2z"/>
<g>
	<path style="fill:#F2EAE2;" d="M32,155.6c-0.8,0-2.4-0.8-2.4-2.4l0,0c0-0.8,0.8-2.4,2.4-2.4h16.8"/>
</g>
<g>
	<path style="fill:#E8DED1;" d="M51.2,130.8c0,0.8,0,0.8-0.8,0.8H31.2c-0.8,0-0.8,0-0.8-0.8l0,0c0-0.8,0-0.8,0.8-0.8h19.2
		C51.2,130,51.2,130,51.2,130.8L51.2,130.8z"/>
	<path style="fill:#E8DED1;" d="M43.2,122c0,1.6-0.8,2.4-2.4,2.4l0,0c-1.6,0-2.4-0.8-2.4-2.4l0,0c0-1.6,0.8-2.4,2.4-2.4l0,0
		C42.4,119.6,43.2,120.4,43.2,122L43.2,122z"/>
</g>
<path style="fill:#DBD0C1;" d="M41.6,121.2C41.6,121.2,40.8,122,41.6,121.2L41.6,121.2c-0.8,0.8-1.6,0.8-1.6,0v-16.8
	c0-0.8,0-0.8,0.8-0.8l0,0c0.8,0,0.8,0,0.8,0.8V121.2z"/>
<path style="fill:#8E7C69;" d="M116,358h2.4c0.8,0,1.6-0.8,1.6-1.6s-0.8-1.6-1.6-1.6H116l-3.2-50.4h5.6c0.8,0,1.6-0.8,1.6-1.6
	c0-0.8-1.6-2.4-2.4-2.4H112l-3.2-50.4h8.8c0.8,0,1.6-0.8,1.6-1.6s-0.8-1.6-1.6-1.6h-8.8l-2.4-40.8c0-0.8,0-0.8,0-1.6h1.6
	c0.8,0,1.6-0.8,1.6-1.6s-0.8-1.6-1.6-1.6v-16h0.8c0,0,0.8,0,0.8-0.8c0,0,0-0.8-0.8-0.8H108c-0.8-3.2-3.2-4.8-6.4-4.8l0,0
	c0.8,0,1.6-0.8,1.6-1.6s-0.8-1.6-1.6-1.6v-12c0,0,0-0.8-0.8-0.8c0,0-0.8,0-0.8,0.8v12c-0.8,0-1.6,0.8-1.6,1.6s0.8,1.6,1.6,1.6l0,0
	c-3.2,0-5.6,2.4-6.4,4.8h-0.8c0,0-0.8,0-0.8,0.8c0,0,0,0.8,0.8,0.8h0.8v16c-0.8,0-1.6,0.8-1.6,1.6s0.8,1.6,1.6,1.6h1.6
	c0,0.8,0,0.8,0,1.6l-2.4,40.8H84c-0.8,0-1.6,0.8-1.6,1.6s0.8,1.6,1.6,1.6h8.8l-3.2,50.4H84c-0.8,0-1.6,0.8-1.6,1.6
	c0,0.8,0.8,1.6,1.6,1.6h5.6L86.4,354H84c-0.8,0-1.6,0.8-1.6,1.6c0,0.8,0.8,1.6,1.6,1.6h2.4l-4,68.8c0,3.2,15.2,5.6,18.4,5.6
	c3.2,0,18.4-2.4,18.4-5.6L116,358z M104.8,197.2h-8v-6.4c0-2.4,1.6-4,4-4s4,1.6,4,4V197.2z"/>
<path style="fill:#DBD0C1;" d="M440.8,425.2c0,4,19.2,7.2,22.4,7.2l0,0c4,0,22.4-3.2,22.4-7.2l-16-268c0-4-3.2-7.2-7.2-7.2l0,0
	c-4,0-7.2,3.2-7.2,7.2L440.8,425.2z"/>
<path style="fill:#C4B8AB;" d="M463.2,150.8L463.2,150.8c-4,0-7.2,3.2-7.2,7.2l-16,268c0,4,19.2,7.2,22.4,7.2l0,0"/>
<g>
	<path style="fill:#DBD0C1;" d="M455.2,150.8c0,1.6,0.8,2.4,2.4,2.4H468c1.6,0,2.4-0.8,2.4-2.4l0,0c0-1.6-0.8-2.4-2.4-2.4h-10.4
		C456.8,148.4,455.2,149.2,455.2,150.8L455.2,150.8z"/>
	<path style="fill:#DBD0C1;" d="M468,152.4v-12c0-2.4-2.4-4.8-4.8-4.8s-4.8,2.4-4.8,4.8v12h-4v-20.8c0-4,3.2-8,8-8h1.6
		c4,0,8,3.2,8,8v20.8H468z"/>
</g>
<path style="fill:#E8DED1;" d="M440.8,339.6c0,0.8,0.8,2.4,2.4,2.4H484c0.8,0,2.4-0.8,2.4-2.4l0,0c0-0.8-0.8-2.4-2.4-2.4h-40.8
	C441.6,338,440.8,338.8,440.8,339.6L440.8,339.6z"/>
<g>
	<path style="fill:#F2EAE2;" d="M483.2,342c0.8,0,2.4-0.8,2.4-2.4l0,0c0-0.8-0.8-2.4-2.4-2.4h-40.8"/>
</g>
<path style="fill:#E8DED1;" d="M440.8,274c0,0.8,0.8,2.4,2.4,2.4H484c0.8,0,2.4-0.8,2.4-2.4l0,0c0-0.8-0.8-2.4-2.4-2.4h-40.8
	C441.6,272.4,440.8,273.2,440.8,274L440.8,274z"/>
<g>
	<path style="fill:#F2EAE2;" d="M483.2,276.4c0.8,0,2.4-0.8,2.4-2.4l0,0c0-0.8-0.8-2.4-2.4-2.4h-40.8"/>
</g>
<path style="fill:#E8DED1;" d="M440.8,209.2c0,0.8,0.8,2.4,2.4,2.4H484c0.8,0,2.4-0.8,2.4-2.4l0,0c0-0.8-0.8-2.4-2.4-2.4h-40.8
	C441.6,206.8,440.8,207.6,440.8,209.2L440.8,209.2z"/>
<g>
	<path style="fill:#F2EAE2;" d="M483.2,210.8c0.8,0,2.4-0.8,2.4-2.4l0,0c0-0.8-0.8-2.4-2.4-2.4h-40.8"/>
</g>
<path style="fill:#E8DED1;" d="M452.8,153.2c0,0.8,0.8,2.4,2.4,2.4H472c0.8,0,2.4-0.8,2.4-2.4l0,0c0-0.8-0.8-2.4-2.4-2.4h-16.8
	C453.6,150.8,452.8,152.4,452.8,153.2L452.8,153.2z"/>
<g>
	<path style="fill:#F2EAE2;" d="M472,155.6c0.8,0,2.4-0.8,2.4-2.4l0,0c0-0.8-0.8-2.4-2.4-2.4h-16.8"/>
</g>
<g>
	<path style="fill:#E8DED1;" d="M452.8,130.8c0,0.8,0,0.8,0.8,0.8h19.2c0.8,0,0.8,0,0.8-0.8l0,0c0-0.8,0-0.8-0.8-0.8h-19.2
		C452.8,130,452.8,130,452.8,130.8L452.8,130.8z"/>
	<path style="fill:#E8DED1;" d="M460.8,122c0,1.6,0.8,2.4,2.4,2.4l0,0c1.6,0,2.4-0.8,2.4-2.4l0,0c0-1.6-0.8-2.4-2.4-2.4l0,0
		C461.6,119.6,460.8,120.4,460.8,122L460.8,122z"/>
</g>
<path style="fill:#DBD0C1;" d="M462.4,121.2C462.4,121.2,463.2,122,462.4,121.2L462.4,121.2c0.8,0.8,1.6,0.8,1.6,0v-16.8
	c0-0.8,0-0.8-0.8-0.8l0,0c-0.8,0-0.8,0-0.8,0.8L462.4,121.2L462.4,121.2z"/>
<path style="fill:#8E7C69;" d="M384,426c0,3.2,15.2,5.6,18.4,5.6c3.2,0,18.4-2.4,18.4-5.6l-4-68.8h3.2c0.8,0,1.6-0.8,1.6-1.6
	c0-0.8-0.8-1.6-1.6-1.6h-2.4l-3.2-50.4h5.6c0.8,0,1.6-0.8,1.6-1.6c0-0.8-0.8-1.6-1.6-1.6h-5.6l-3.2-50.4h8.8c0.8,0,1.6-0.8,1.6-1.6
	s-0.8-1.6-1.6-1.6h-8.8l-2.4-40.8c0-0.8,0-0.8,0-1.6h1.6c0.8,0,1.6-0.8,1.6-1.6s-0.8-1.6-1.6-1.6v-16h0.8c0,0,0.8,0,0.8-0.8
	c0,0,0-0.8-0.8-0.8h-0.8c-0.8-3.2-3.2-4.8-6.4-4.8l0,0c0.8,0,1.6-0.8,1.6-1.6s-0.8-1.6-1.6-1.6v-12c0,0,0-0.8-0.8-0.8
	c0,0-0.8,0-0.8,0.8v12c-0.8,0-1.6,0.8-1.6,1.6s0.8,1.6,1.6,1.6l0,0c-3.2,0-5.6,2.4-6.4,4.8h-0.8c0,0-0.8,0-0.8,0.8
	c0,0,0,0.8,0.8,0.8h0.8v16c-0.8,0-1.6,0.8-1.6,1.6s0.8,1.6,1.6,1.6h1.6c0,0.8,0,0.8,0,1.6l-2.4,40.8h-8.8c-0.8,0-1.6,0.8-1.6,1.6
	s0.8,1.6,1.6,1.6h8.8l-3.2,50.4h-5.6c-0.8,0-1.6,0.8-1.6,1.6c0,0.8,0.8,1.6,1.6,1.6h5.6l-3.2,50.4h-2.4c-0.8,0-1.6,0.8-1.6,1.6
	c0,0.8,0.8,1.6,1.6,1.6h1.6L384,426z M399.2,190.8c0-2.4,1.6-4,4-4s4,1.6,4,4v6.4h-8V190.8z"/>
<path style="fill:#7F7F7F;" d="M504,426c0,4.8-3.2,8-8,8H8c-4.8,0-8-3.2-8-8l0,0c0-4.8,3.2-8,8-8h488C500.8,418,504,421.2,504,426
	L504,426z"/>
<path style="fill:#E8DED1;" d="M320.8,242c0,1.6-1.6,3.2-3.2,3.2H186.4c-1.6,0-3.2-1.6-3.2-3.2l0,0c0-1.6,1.6-3.2,3.2-3.2h131.2
	C319.2,239.6,320.8,240.4,320.8,242L320.8,242z"/>
<path style="fill:#E2D9CF;" d="M273.6,133.2c-8-7.2-15.2-13.6-21.6-18.4v18.4H273.6z"/>
<g>
	<path style="fill:#DBD0C1;" d="M273.6,133.2L273.6,133.2c-8-7.2-15.2-13.6-21.6-18.4l14.4,18.4H273.6z"/>
	<path style="fill:#DBD0C1;" d="M252.8,133.2v-18.4c-6.4,5.6-14.4,11.2-21.6,18.4H252.8z"/>
</g>
<path style="fill:#E2D9CF;" d="M238.4,133.2l14.4-18.4c-6.4,5.6-14.4,11.2-21.6,18.4l0,0H238.4z"/>
<path style="fill:#DBD0C1;" d="M258.4,116.4c0,0.8-0.8,1.6-1.6,1.6h-8c-0.8,0-1.6-0.8-1.6-1.6l0,0c0-0.8,0.8-1.6,1.6-1.6h8
	C257.6,114,258.4,114.8,258.4,116.4L258.4,116.4z"/>
<rect x="220.8" y="366" style="fill:#E8DED1;" width="63.2" height="5.6"/>
<g>
	<path style="fill:#A59486;" d="M180,243.6c0,0.8-0.8,1.6-1.6,1.6H140c-0.8,0-1.6-0.8-1.6-1.6l0,0c0-0.8,0.8-1.6,1.6-1.6h38.4
		C179.2,242.8,180,242.8,180,243.6L180,243.6z"/>
	<path style="fill:#A59486;" d="M365.6,243.6c0,0.8-0.8,1.6-1.6,1.6h-38.4c-0.8,0-1.6-0.8-1.6-1.6l0,0c0-0.8,0.8-1.6,1.6-1.6H364
		C364.8,242.8,365.6,242.8,365.6,243.6L365.6,243.6z"/>
</g>
<path style="fill:#DBD0C1;" d="M252.8,214.8H180c2.4,25.6,22.4,48,52.8,56.8h20.8v-56.8H252.8z"/>
<path style="fill:#CEC1B2;" d="M251.2,214.8v56.8H272c29.6-8.8,50.4-31.2,52.8-56.8L251.2,214.8L251.2,214.8z"/>
<g>
</g>
<g>
</g>
<g>
</g>
<g>
</g>
<g>
</g>
<g>
</g>
<g>
</g>
<g>
</g>
<g>
</g>
<g>
</g>
<g>
</g>
<g>
</g>
<g>
</g>
<g>
</g>
<g>
</g>
</svg>
