<svg width="1176.60617" height="873.97852" xmlns="http://www.w3.org/2000/svg">
 <title>connected world</title>

 <g>
  <title>background</title>
  <rect fill="none" id="canvas_background" height="402" width="582" y="-1" x="-1"/>
 </g>
 <g>
  <title>Layer 1</title>
  <path id="svg_2" fill="#3f3d56" d="m309.73197,249.21746a34.38541,34.38541 0 0 0 -2.24759,-8.60455a3.89486,3.89486 0 0 0 -1.9801,-2.43877a4.08011,4.08011 0 0 0 -1.96474,-0.022l-10.08728,1.5435a3.86686,3.86686 0 0 0 -2.30153,0.89427c-1.31382,1.38169 -0.0201,3.60656 -0.06032,5.51275c-0.04523,2.14349 -1.94974,3.88337 -4.015,4.459a15.17731,15.17731 0 0 1 -6.37968,-0.0791l-14.105,-2.19194a23.25611,23.25611 0 0 0 10.67057,-7.12071c1.85618,-2.1989 2.84369,-6.30419 0.1611,-7.34549a6.58539,6.58539 0 0 0 -2.4499,-0.19671c-6.39055,0.04969 -11.41938,-5.286 -17.402,-7.53322a19.24089,19.24089 0 0 0 -21.65464,6.45538l7.5139,0.36227a3.33516,3.33516 0 0 1 2.00147,0.53379c1.6467,1.35295 -0.40057,3.95167 -0.16859,6.07024c0.3014,2.75248 3.95606,3.34017 6.711,3.6185s6.2499,2.51667 4.92472,4.94791c-13.84664,4.7694 -27.9371,-9.32314 -42.479,-7.58839c-3.68047,0.43906 -7.15584,1.88493 -10.74918,2.79409c-21.95074,5.55382 -44.64391,-9.26441 -67.06781,-6.12617a85.16281,85.16281 0 0 0 -14.64041,3.86122c-3.05193,1.00208 -6.23529,2.085 -8.4528,4.409s-3.06148,6.29847 -0.96073,8.72854a49.12567,49.12567 0 0 1 -17.21577,-1.63646a9.645,9.645 0 0 1 4.95868,8.50029a102.14535,102.14535 0 0 0 -26.16726,7.97875a44.07342,44.07342 0 0 0 5.416,7.21479l-11.44534,7.353c3.86678,0.97425 5.866,6.24693 3.61733,9.54c4.00941,-1.78367 6.49425,-6.39789 10.78165,-7.33339c2.80882,-0.61288 5.66686,0.53616 8.33145,1.61556s5.59324,2.12606 8.35166,1.31595s4.793,-4.38683 3.04022,-6.66564a142.71908,142.71908 0 0 1 36.25271,-5.66392a4.54655,4.54655 0 0 1 2.7456,0.52105c1.59825,1.10883 1.17774,3.50381 1.09165,5.44712s1.42851,4.49732 3.16535,3.62139c-2.0434,1.77191 -0.29656,5.10765 1.66387,6.97094s4.32331,4.43434 3.12309,6.85811c-0.31325,0.63259 -0.84455,1.13873 -1.14595,1.77705c-0.88965,1.88416 0.52289,4.08076 2.189,5.332s3.70692,2.12572 4.86428,3.85837s0.63178,4.76548 -1.43777,5.00743l-5.88236,-7.46869a15.31355,15.31355 0 0 0 -3.97364,7.53022c6.23775,5.09923 7.176,15.47823 1.9538,21.61341c-2.66868,3.13523 -6.46374,5.04033 -9.776,7.48581s-6.37716,5.92783 -6.36883,10.045c0.01439,7.1131 -0.56681,13.72146 2.09864,20.31629a312.966,312.966 0 0 0 16.99045,35.44742c1.68084,3.00616 3.85316,6.30106 7.2582,6.81867q-6.45495,-15.71421 -11.62147,-31.91738c2.24339,0.00878 4.83588,0.1869 6.151,2.0044c1.089,1.505 0.85507,3.55121 1.19345,5.37785a16.65908,16.65908 0 0 0 2.12446,4.99431l20.5495,36.60482c1.70352,3.03448 3.65756,6.29169 6.91332,7.52057c2.08158,0.78568 4.48987,0.63767 6.4058,1.76882c1.50176,0.88663 2.51323,2.46048 4.04419,3.29566c4.32885,2.36148 10.34856,-2.16748 14.394,0.652c1.15671,0.80618 1.89258,2.08691 2.9584,3.00991c3.7363,3.23562 9.8654,1.07107 14.17856,3.48476c2.77976,1.55559 4.22039,4.66667 5.70306,7.486c3.71393,7.0621 9.72327,13.98083 17.68257,14.54317c2.50017,0.17664 5.054,-0.2974 7.4979,0.25869s4.84966,2.68894 4.45736,5.16446c-0.67255,4.244 1.42431,8.89112 0.86116,13.151c-1.02579,7.7595 -12.03211,11.16939 -12.97751,18.93909c-0.207,1.70118 0.117,3.45712 -0.28806,5.12229c-0.49646,2.04085 -2.02916,3.70248 -2.57379,5.731c-1.03211,3.84421 1.72207,7.67 4.74769,10.25626s6.63464,4.8164 8.28878,8.43676c1.74839,3.82665 0.88959,8.2885 1.4582,12.457c1.24134,9.10039 9.10157,15.84677 17.19082,20.19673c2.46463,1.32534 5.11094,2.60844 6.70615,4.90762c2.08209,3.00091 1.87467,6.957 2.56992,10.54272c1.70271,8.78155 9.09527,16.01718 9.30517,24.95982c0.14919,6.35613 -3.384,12.12238 -5.49458,18.11972a42.25685,42.25685 0 0 0 3.45065,35.0456c1.57886,2.666 3.46722,5.17956 4.58411,8.06975c1.9931,5.15754 1.34639,11.02046 3.18408,16.2354c2.42959,6.8946 9.10562,12.58934 8.46666,19.87152c3.0309,6.29406 9.72369,9.38665 16.45363,11.26l12.06158,3.3575c2.30949,0.64288 4.72281,1.29086 7.07448,0.82537s4.596,-2.41823 4.53529,-4.81476c-5.91483,-1.33393 -12.01936,-2.75242 -16.89516,-6.35673s-8.21581,-10.02271 -6.36585,-15.797c0.85781,-2.67751 2.68278,-5.76942 0.94774,-7.98179c-0.99343,-1.26672 -2.81,-1.59767 -3.93051,-2.75344c-1.74775,-1.80265 -1.14729,-4.831 0.10918,-7.0048s3.07257,-4.11641 3.57937,-6.57554a6.8609,6.8609 0 0 0 -3.21584,-7.13792a17.05434,17.05434 0 0 0 5.97,-3.83059c1.57,-1.79291 2.29521,-4.557 1.06019,-6.59515c3.66753,0.46513 7.99742,0.69293 10.40495,-2.1126c1.92251,-2.24033 1.79046,-5.5897 1.03082,-8.44244s-2.04361,-5.62357 -2.08361,-8.57544a156.26659,156.26659 0 0 0 25.353,-0.85968a16.43929,16.43929 0 0 0 -7.70814,-9.65354c3.81059,-0.64475 7.28211,-5.20677 8.486,-8.87922s0.89686,-7.67268 0.15275,-11.46513a6.1519,6.1519 0 0 1 -0.114,-3.0037c0.42911,-1.36751 1.77248,-2.202 3.01534,-2.91574l18.91439,-10.86271a11.01742,11.01742 0 0 0 3.02461,-2.2329c1.98167,-2.3277 1.68812,-5.84149 0.67344,-8.72517s-2.64,-5.59533 -3.03084,-8.62723c-1.169,-9.06757 8.53762,-15.57351 11.81344,-24.10911c1.28556,-3.34968 1.54756,-6.99072 1.79634,-10.57c0.2672,-3.84428 0.28706,-8.30958 -2.66466,-10.78692c-2.82948,-2.37472 -7.25051,-1.845 -10.21125,-4.05388c-2.71448,-2.02517 -3.651,-5.95833 -6.61642,-7.59409c-2.69305,-1.4855 -6.06961,-0.54073 -9.06479,-1.23939c-5.27364,-1.23013 -8.59236,-7.30815 -13.97824,-7.87093c-3.03881,-0.31753 -6.47807,1.16807 -8.96869,-0.60169c-2.19461,-1.55942 -2.28256,-4.69377 -2.70031,-7.35339a20.53588,20.53588 0 0 0 -16.57469,-16.62806c-3.13319,-0.50246 -6.54363,-0.31164 -9.20909,-2.03347c-2.699,-1.74352 -3.93652,-5.00776 -6.0566,-7.42227c-3.41691,-3.89143 -8.79842,-5.274 -13.83964,-6.45913l-20.50551,-4.82056c-3.64012,-0.85575 -8.33221,-1.30951 -10.2856,1.87908a14.73808,14.73808 0 0 0 -1.2167,3.82666a11.85046,11.85046 0 0 1 -11.14436,8.38821a13.17908,13.17908 0 0 0 -7.77154,-6.01327c-2.07929,-0.57947 -4.30492,-0.64392 -6.288,-1.49645a8.83267,8.83267 0 0 1 -3.83257,-12.25263a10.99469,10.99469 0 0 0 -1.87879,-13.22509c-3.48719,-3.13068 -8.53151,-3.88711 -13.20736,-3.57386c-1.22464,-2.67214 0.823,-5.687 3.02956,-7.62888s4.886,-3.851 5.36649,-6.75084c0.75588,-4.56146 -5.06429,-8.026 -9.48338,-6.66591s-7.23961,5.65241 -9.10407,9.88349c-1.06976,2.42763 -1.97922,4.984 -3.66664,7.031s-4.40481,3.51266 -6.97507,2.85573c-3.63876,-0.93 -5.0441,-5.25313 -5.84943,-8.9215c-1.0805,-4.92177 -2.16729,-9.91182 -1.94089,-14.94571s1.92341,-10.20254 5.63535,-13.6103c6.04878,-5.55311 15.328,-5.00874 23.49132,-4.12292c-1.92865,-2.173 -1.452,-5.83518 0.61156,-7.88051a8.95973,8.95973 0 0 1 8.12084,-1.99506a11.19111,11.19111 0 0 1 6.29121,3.76152c2.31979,2.82828 2.97946,6.647 4.73289,9.85732s5.69616,5.94849 8.92328,4.22617c2.78738,-1.48763 3.22979,-5.35275 2.53606,-8.43517s-2.16714,-6.07975 -1.91585,-9.22926c0.4795,-6.00963 6.70912,-9.627 12.20639,-12.102s11.79199,-5.80355 12.66291,-11.76903a10.72992,10.72992 0 0 1 0.65234,-3.42029a6.70927,6.70927 0 0 1 2.46136,-2.31466c16.04394,-10.60287 32.35471,-21.33517 50.69218,-27.12878c0.954,-0.30143 1.066,0.03357 2.03827,-0.20258c1.36074,-0.78645 0.45911,-2.96205 -0.84552,-3.83847s-3.04843,-1.54853 -3.37942,-3.08495c-0.24331,-1.12941 0.42213,-2.23839 0.595,-3.38071c0.42476,-2.807 -2.93323,-5.39866 -5.541,-4.27645c-1.473,-1.95077 1.44164,-4.21747 3.79839,-4.86633a103.15015,103.15015 0 0 1 21.67038,-3.54a3.90329,3.90329 0 0 1 2.46588,0.41943c1.23093,0.85266 1.07366,2.80835 0.20129,4.0254s-2.22935,1.98119 -3.31646,3.011a9.05261,9.05261 0 0 0 -2.34812,9.105c3.826,1.94617 7.98552,3.94962 12.223,3.264s7.99857,-5.44675 6.00679,-9.24924c-1.8548,-3.541 -7.42626,-4.33966 -8.38436,-8.22052c-1.12177,-4.5438 5.31041,-8.585 3.86151,-13.03528c-0.63466,-1.94937 -2.57739,-3.09662 -4.06811,-4.504a12.22124,12.22124 0 0 1 -2.67445,-13.55158a15.41851,15.41851 0 0 1 -13.52264,-4.2317c-3.23448,-3.26425 -5.8149,-8.41353 -10.40792,-8.26747c-4.21485,0.134 -7.84523,5.0513 -11.78634,3.55111c-0.96958,-0.36907 -1.99186,-1.12025 -2.93131,-0.68012a2.42225,2.42225 0 0 0 -1.09342,1.815c-1.00154,4.78839 0.72138,10.24417 -1.88839,14.38191c-2.83993,4.50267 -9.4088,5.12692 -12.85167,9.18721c-1.86891,2.20407 -2.593,5.17405 -4.31085,7.49776s-5.36393,3.80111 -7.42549,1.77609a10.23468,10.23468 0 0 0 -2.78041,-12.44508a27.30929,27.30929 0 0 0 -6.14119,-2.98712a36.42167,36.42167 0 0 1 -6.86076,-3.82371a6.75781,6.75781 0 0 1 -2.51864,-2.69494a6.14136,6.14136 0 0 1 0.17224,-4.26168a17.42557,17.42557 0 0 1 13.86714,-11.49368c2.74488,-0.37343 5.93955,-0.24185 7.75607,-2.33327c0.96116,-1.10661 1.46548,-2.77969 2.86062,-3.22913a4.21943,4.21943 0 0 1 2.64107,0.32524l10.24533,3.60618a7.19076,7.19076 0 0 0 3.64975,0.60364a2.47448,2.47448 0 0 0 2.13965,-2.60046c-0.32735,-1.70141 -2.94535,-2.51787 -2.70713,-4.234a2.82667,2.82667 0 0 1 0.85747,-1.44135a36.6289,36.6289 0 0 1 29.0513,-11.47224c1.29313,2.1238 -0.752,4.63875 -2.45369,6.45178s-3.06918,5.05247 -1.01125,6.44805a5.64254,5.64254 0 0 0 2.72791,0.61435a23.81858,23.81858 0 0 1 7.2608,2.20231q5.31051,2.31106 10.41719,5.05725c-0.30072,-2.24471 -0.58773,-4.60949 0.26309,-6.70836s3.26893,-3.74515 5.38105,-2.92776c2.03552,0.78775 3.07945,3.483 5.24807,3.72993c2.89281,0.32939 4.03409,-3.94424 2.82574,-6.59315s-3.60044,-4.86693 -3.80011,-7.77157c-0.13471,-1.95958 0.611,-4.38989 -0.95429,-5.57648a4.26049,4.26049 0 0 0 -1.84682,-0.64758l-39.08387,-7.19215c-2.32088,-0.42709 -5.67415,-0.09975 -5.77707,2.25786c-0.05746,1.316 1.11807,2.61792 0.59742,3.82788c-0.55569,1.2914 -2.3812,1.17333 -3.71082,1.63009c-2.06306,0.70871 -3.0983,3.15844 -2.90016,5.33082a14.83392,14.83392 0 0 0 2.448,6.00751c-2.54218,-1.06317 -6.39147,-1.2586 -8.93365,-2.32176z"/>
  <path id="svg_3" fill="#3f3d56" d="m278.5469,216.04006a12.65625,12.65625 0 0 0 -13.90248,4.16352c-0.64354,0.84733 -1.184,2.0154 -0.64526,2.93291c0.77242,1.31538 2.74054,0.79583 4.19156,0.3253a10.54923,10.54923 0 0 1 6.62071,-0.15794c1.36251,0.4678 2.58147,1.29457 3.94993,1.74469a3.97776,3.97776 0 0 0 4.0557,-0.59267c0.93918,-0.95786 0.99811,-2.447 0.99977,-3.7885a3.04683,3.04683 0 0 0 -0.7764,-2.50416a3.98083,3.98083 0 0 0 -1.79553,-0.53108a6.18453,6.18453 0 0 1 -3.61949,-2.11485"/>
  <path id="svg_4" fill="#3f3d56" d="m292.63972,212.11626a3.21956,3.21956 0 0 0 -3.11178,4.53438a13.04966,13.04966 0 0 0 5.203,0.33925a4.44715,4.44715 0 0 0 3.63666,-3.33425a8.37214,8.37214 0 0 1 -5.92789,-1.13214"/>
  <path id="svg_5" fill="#3f3d56" d="m339.92285,205.56316a59.85328,59.85328 0 0 0 -13.342,4.5323a10.02439,10.02439 0 0 1 6.40246,10.06844a5.24308,5.24308 0 0 0 0.06075,2.48936c0.49,1.18793 1.90992,1.63367 3.15823,1.93858a20.82257,20.82257 0 0 0 6.927,0.88415a7.05639,7.05639 0 0 0 5.73376,-3.50382a24.97233,24.97233 0 0 1 1.19237,-2.81861c2.99219,-4.55705 11.8812,0.9531 15.09379,-3.45134c1.13168,-1.55153 1.02817,-3.887 2.50344,-5.11644a5.62408,5.62408 0 0 1 2.57353,-0.98213a180.73105,180.73105 0 0 1 19.54841,-2.78411c3.10923,-0.27057 7.16188,-1.387 7.18775,-4.50784a54.14874,54.14874 0 0 0 -34.54122,4.64674c-3.85042,1.92855 -8.943,5.98531 -12.65192,3.42852c-1.3887,-0.95731 -1.31994,-3.5351 -3.23126,-4.61157c-1.9541,-1.10056 -4.54077,-0.65294 -6.61509,-0.21223z"/>
  <path id="svg_6" fill="#3f3d56" d="m378.22194,212.7252l5.49742,1.05632a7.12377,7.12377 0 0 0 -7.41336,7.7201c5.14811,1.7198 10.76072,0.04624 16.18368,0.27485s11.73261,4.10232 10.80688,9.45057c-0.27991,1.61713 -1.2141,3.23318 -0.72831,4.8008c0.34049,1.09875 1.3095,1.87838 1.85645,2.89032c1.13975,2.10869 0.22882,4.77587 -1.21034,6.69274s-3.37358,3.44632 -4.63683,5.48342c-3.14187,5.06657 -1.35681,11.61664 0.51479,17.27691a15.23135,15.23135 0 0 0 2.92877,5.84883c2.77285,2.94822 7.29158,3.20463 11.33846,3.26369c2.94546,0.043 6.31961,-0.10253 8.18228,-2.38464c2.4318,-2.97941 0.73135,-7.62792 2.3324,-11.12466c1.45407,-3.17575 5.15873,-4.53818 8.51521,-5.50446c6.14911,-1.77024 12.41566,-3.27523 18.229,-5.94915c7.2187,-3.32032 13.96506,-8.49468 21.89925,-8.92208c2.22592,-0.1199 4.507,0.1428 6.65112,-0.46707s4.18088,-2.46362 4.01856,-4.68685c-0.1387,-1.89959 -1.74585,-3.29449 -3.00165,-4.72649s-2.242,-3.634 -1.08784,-5.14908l20.79655,-3.88442c-1.47415,-4.01745 -2.62255,-9.30851 0.76489,-11.92352c1.22221,-0.94351 2.85865,-1.32062 3.89928,-2.46127c1.77363,-1.9441 0.88175,-5.293 -1.16563,-6.94635s-4.81568,-2.03716 -7.43825,-2.255c-9.11882,-0.75732 -18.29,-0.25689 -27.42647,0.24392q-26.78979,1.46846 -53.57959,2.93691c-3.59534,0.19707 -7.74639,-0.104 -11.04389,1.12259c-2.79157,1.03843 -4.77642,2.94458 -7.96917,3.61429c-5.89396,1.23636 -12.38018,0.39973 -17.71366,3.70878z"/>
  <path id="svg_7" fill="#3f3d56" d="m476.70648,256.17846a2.21206,2.21206 0 0 0 -1.60017,0.36291a2.02023,2.02023 0 0 0 -0.5209,1.23389a8.1485,8.1485 0 0 0 1.1836,5.83234a5.71115,5.71115 0 0 0 5.228,2.50649c2.47536,-0.31565 4.29959,-2.42746 6.5753,-3.45795c3.50743,-1.58681 18.40286,-4.06052 8.099,-9.62727c-3.55093,-1.91843 -5.84544,-0.22491 -8.64415,1.03851a19.66887,19.66887 0 0 1 -10.32068,2.11108z"/>
  <path id="svg_8" fill="#3f3d56" d="m566.9563,209.5826a5.88312,5.88312 0 0 0 -2.86244,2.49162a2.514,2.514 0 0 0 0.94284,3.335a3.75215,3.75215 0 0 0 1.40355,0.22264l4.89215,0.14615c2.07829,0.06209 4.67431,0.50471 5.23278,2.50751c0.41469,1.48714 -0.51346,3.39813 0.60642,4.46087a3.1547,3.1547 0 0 0 1.66421,0.64909a11.34113,11.34113 0 0 0 4.92928,0.15908c3.55953,-0.95476 1.68918,-3.12726 2.81027,-5.06171c1.71533,-2.95984 1.41838,-1.16811 4.44085,-2.86446c2.23211,-1.25277 5.11647,-3.52532 3.25342,-6.71829c-3.23981,-5.5525 -22.53255,-1.71284 -27.31333,0.6725z"/>
  <path id="svg_9" fill="#3f3d56" d="m663.51518,206.79107l-2.84073,0.37908c-6.40592,0.85484 -12.84814,1.71755 -19.01791,3.64123a31.65235,31.65235 0 0 0 8.32883,2.04373a25.58457,25.58457 0 0 1 4.66545,0.66319c2.7251,0.81124 5.471,2.90612 8.10377,1.833c1.63239,-0.66538 2.16508,-2.36506 3.5173,-3.26585c0.93372,-0.622 4.47516,-1.62874 4.87106,-2.25654c3.20059,-5.07536 -5.16755,-3.36614 -7.62777,-3.03784z"/>
  <path id="svg_10" fill="#3f3d56" d="m675.98915,219.70207a53.27668,53.27668 0 0 0 -10.48319,7.67719c-1.33471,1.25468 -2.698,2.81516 -2.57694,4.643c0.16086,2.42938 2.74871,3.83854 4.99074,4.78778l9.08123,3.84485c1.10167,-1.55276 0.09336,-3.69619 -1.04522,-5.2221s-2.4916,-3.29135 -1.98856,-5.12757c0.57406,-2.09545 3.129,-2.80951 5.27146,-3.1705c3.49077,-0.58817 12.90738,-0.541 11.77592,-6.16669c-1.33319,-6.62877 -11.52134,-3.22459 -15.02544,-1.26596z"/>
  <path id="svg_11" fill="#3f3d56" d="m674.163,594.82926c-0.86453,2.50287 -0.94655,5.45128 0.54891,7.63652c1.67807,2.45208 5.0364,3.36612 7.9419,2.74429a14.307,14.307 0 0 0 7.37358,-4.74082a25.39213,25.39213 0 0 0 4.24116,-6.50393a50.76722,50.76722 0 0 0 3.14358,-11.50232l2.8196,-14.804c0.63007,-3.3086 0.60568,-13.45221 -5.47541,-10.14731c-1.66126,0.90284 -5.50764,8.03123 -7.2486,10.05264c-3.13778,3.64323 -3.55293,7.17824 -5.20477,11.59189c-2.06902,5.52837 -6.22731,10.13584 -8.13995,15.67304z"/>
  <path id="svg_12" fill="#3f3d56" d="m995.34508,670.58658a44.3323,44.3323 0 0 1 -5.77846,-2.75084a48.70737,48.70737 0 0 0 -2.9293,15.96489l13.61588,-7.70478c2.04826,-1.159 4.36977,-2.76948 4.32573,-5.12252a1.62057,1.62057 0 0 0 -0.75277,-1.47353a1.83562,1.83562 0 0 0 -0.95451,-0.112c-2.019,0.16826 -3.85988,1.16172 -5.76449,1.85256s-4.13169,1.056 -5.87919,0.03077"/>
  <path id="svg_13" fill="#3f3d56" d="m1067.17167,675.16081a29.472,29.472 0 0 0 -4.36645,1.567c-3.12461,1.58981 -5.25021,4.60947 -8.062,6.70342c-2.69071,2.00378 -5.92975,3.10394 -9.1095,4.17362c-0.93537,0.82681 -0.50556,2.492 0.50978,3.21833a6.31536,6.31536 0 0 0 3.59613,0.80831c3.30343,0.07292 6.78371,0.10473 9.6772,-1.49081a30.51837,30.51837 0 0 0 4.55609,-3.61614c3.38307,-2.82274 7.44579,-4.68517 11.46743,-6.485a13.162,13.162 0 0 0 3.99692,-2.38972c2.52713,-2.48973 2.70483,-6.33069 -0.93912,-7.17807c-2.94428,-0.68475 -8.523,3.78211 -11.32648,4.68906z"/>
  <path id="svg_14" fill="#3f3d56" d="m1098.90784,654.43039a11.35853,11.35853 0 0 0 -3.47525,-9.30664c-0.03724,3.42765 -0.14133,7.07923 -2.06913,9.91362c-1.37358,2.01952 -3.52722,3.38376 -5.0321,5.30744s-2.17288,4.97289 -0.40769,6.66088a6.61488,6.61488 0 0 0 3.92025,1.35022c3.51377,0.41362 7.58086,0.64415 10.04531,-1.89439c1.34513,-1.38557 1.99943,-3.43772 3.64,-4.4564a4.42852,4.42852 0 0 0 1.597,-1.14283c0.6774,-1.07684 -0.39893,-2.496 -1.6105,-2.884s-2.5467,-0.2056 -3.76434,-0.5741s-2.33475,-1.73769 -1.71,-2.84589"/>
  <path id="svg_15" fill="#3f3d56" d="m1042.50292,528.75926a15.79465,15.79465 0 0 1 -5.63593,0.3323c-3.12814,-0.5751 -5.5628,-2.93262 -8.08828,-4.866a35.677,35.677 0 0 0 -20.84563,-7.2833c-6.86252,-0.12959 -13.78915,1.73 -20.52914,0.43257c0.44035,2.44927 2.53621,4.28628 4.77242,5.37816s4.70424,1.64135 6.95118,2.711a16.59674,16.59674 0 0 1 8.03921,8.36349c0.72369,1.68923 1.179,3.52752 2.27524,5.0025c2.2406,3.01482 6.48759,3.67683 10.23573,3.43028c4.88672,-0.32145 9.9906,-1.7269 14.53687,0.09374c3.47789,1.39278 5.96707,4.43682 8.871,6.80376s6.99409,4.12365 10.32859,2.41582a17.07456,17.07456 0 0 1 -11.81436,-16.42993c3.27045,0.30074 12.6902,0.18435 12.18281,-5.37265c-0.42992,-4.70948 -8.47149,-1.52005 -11.27971,-1.01174z"/>
  <path id="svg_16" fill="#3f3d56" d="m999.71968,567.07638c0.58068,-3.18486 3.75678,-5.99733 2.76744,-9.07981c-0.6842,-2.13171 -3.15585,-3.18416 -5.39406,-3.23672s-4.437,0.61415 -6.67494,0.67693a32.52991,32.52991 0 0 0 -4.3708,0.06208c-4.44246,0.73025 -7.18069,5.3866 -11.36728,7.04224c-2.54567,1.00671 -5.40551,0.81426 -8.05306,1.51021c-6.00991,1.57979 -9.81258,7.25885 -14.01373,11.83761a50.01052,50.01052 0 0 1 -25.38405,14.80352c-3.4171,0.79123 -7.09045,1.29744 -9.80657,3.51674c-3.59681,2.93889 -4.48219,7.97714 -5.28242,12.55248a207.33279,207.33279 0 0 1 -10.093,37.05085l14.27043,1.822c2.71314,0.34641 5.52446,0.68539 8.1389,-0.11824a23.62759,23.62759 0 0 0 5.35325,-2.85151a53.44248,53.44248 0 0 1 20.87945,-7.53674c3.737,-0.51305 7.655,-0.60706 11.16192,0.782s6.51552,4.53912 6.80943,8.29966a8.76685,8.76685 0 0 1 8.76213,2.131a15.23057,15.23057 0 0 1 4.18328,8.35106c0.3759,1.95234 0.752,4.29163 2.56365,5.11066c1.478,0.6682 3.17346,-0.05148 4.79031,-0.18086c5.48649,-0.439 10.03922,5.95835 15.43188,4.85672c5.78353,-1.18148 7.20343,-9.84311 12.84567,-11.57814c3.24055,-0.99649 7.786,0.21524 9.33774,-2.79908c1.36774,-2.65685 -1.36107,-5.72282 -1.07966,-8.69778c0.3465,-3.66316 4.66743,-5.218 7.99847,-6.781c11.484,-5.38855 16.93355,-20.845 11.36868,-32.24457c-3.29717,-6.75422 -9.78474,-12.071 -10.98287,-19.49093c-0.92182,-5.70876 1.32859,-12.36578 -2.31117,-16.85931c-1.85157,-2.28588 -4.98653,-3.54764 -6.08831,-6.2752c-0.69353,-1.7169 -0.41478,-3.66488 -0.788,-5.47855s-1.95554,-3.7108 -3.74653,-3.2407c-5.19889,1.3646 -6.85784,17.42481 -9.6413,21.327c-4.23114,5.93159 -12.91732,2.02442 -11.58488,-5.28362z"/>
  <path id="svg_17" fill="#3f3d56" d="m903.62541,534.82736c-1.77663,-0.49816 -3.71661,-0.9889 -5.4189,-0.277s-2.69642,3.21122 -1.33017,4.45137c10.68847,-0.41637 21.44238,-0.82984 32.04,0.62169c12.21017,1.67239 24.29409,5.815 36.55784,4.59626a186.05361,186.05361 0 0 0 -21.32606,-4.94866l-12.0059,-2.29346a92.83038,92.83038 0 0 0 -9.74919,-1.50643c-6.8493,-0.56567 -12.03335,1.2445 -18.76762,-0.64377z"/>
  <path id="svg_18" fill="#3f3d56" d="m914.32577,497.60144c-0.88733,-0.07409 -1.9863,-0.13792 -2.44535,0.625c-0.43858,0.72893 0.06343,1.692 -0.17241,2.5094c-0.3222,1.11667 -1.78464,1.40194 -2.93688,1.24991s-2.3984,-0.51613 -3.41924,0.03944a2.89808,2.89808 0 0 0 -1.1205,3.29188a8.47457,8.47457 0 0 0 1.97628,3.15037a32.1849,32.1849 0 0 0 5.12776,5.14334c3.67354,2.71163 8.65038,4.01837 10.96411,7.95468a5.278,5.278 0 0 0 1.46433,1.97083c1.11073,0.70357 2.55931,0.16832 3.75519,-0.37811l4.192,-1.91541a4.76165,4.76165 0 0 0 1.95967,-1.33278c0.95772,-1.29948 0.36947,-3.1471 -0.43438,-4.547s-1.83282,-2.84867 -1.66031,-4.45369c0.30757,-2.86171 3.98705,-3.95634 5.5,-6.40481c1.525,-2.468 0.53222,-5.64793 0.708,-8.544c0.20569,-3.38674 2.33378,-7.7921 -1.09013,-10.32252c-2.90989,-2.15054 -5.69117,-0.16345 -7.78036,2.21079c-4.40568,5.00677 -6.48888,10.429 -14.58778,9.75268z"/>
  <path id="svg_19" fill="#3f3d56" d="m939.77134,446.99849c1.43117,2.74025 4.41473,4.37553 5.97536,7.04417c1.69159,2.89256 1.49886,6.62987 3.334,9.43356c1.88279,2.87652 5.67178,4.4037 6.72769,7.67544c1.15278,3.57193 -1.46278,7.91337 0.62215,11.03437a4.63194,4.63194 0 0 0 6.79449,0.62426a4.98391,4.98391 0 0 0 -0.20571,-6.95361c-1.23444,-1.12551 -3.007,-1.61188 -4.03768,-2.92653a6.141,6.141 0 0 1 -1.04577,-2.54625a16.66947,16.66947 0 0 1 0.26223,-7.98917a3.55525,3.55525 0 0 0 0.20093,-2.08971c-0.464,-1.34873 -2.29026,-1.44442 -3.572,-2.07011c-2.91117,-1.42106 -2.84052,-5.52953 -2.3319,-8.7289c-0.33863,2.13 -7.92588,-1.49274 -8.72038,-2.69926c-1.57831,-2.39681 -0.71931,-7.02026 -1.03176,-9.66886c-3.40742,1.64194 -4.72147,6.51016 -2.97165,9.8606z"/>
  <path id="svg_20" fill="#3f3d56" d="m863.33452,489.16032c-1.40039,-1.56769 -3.50969,-3.20771 -5.38715,-2.26225c-1.43239,0.72131 -1.82641,2.70317 -1.265,4.20545a9.25683,9.25683 0 0 0 3.05492,3.642c3.91255,3.22681 8.12569,6.13914 11.539,9.89012c6.10833,6.71269 9.34415,15.77036 15.98724,21.95431a8.9669,8.9669 0 0 0 5.034,2.7244c1.93541,0.18005 4.10878,-1.05881 4.33125,-2.9898c0.18325,-1.59064 -0.92563,-3.01436 -2.00929,-4.19309c-2.58052,-2.80691 -5.40559,-5.39057 -7.84193,-8.32349a6.99405,6.99405 0 0 1 -2.00446,-4.18629c-0.01236,-1.5792 1.42772,-3.23208 2.95776,-2.841c-1.86083,-0.47563 -3.24087,-3.57576 -5.972,-4.15852c-2.28244,-0.487 -2.8346,0.926 -5.55093,-0.239c-5.18073,-2.22199 -9.24535,-9.16133 -12.87341,-13.22284z"/>
  <path id="svg_21" fill="#3f3d56" d="m985.06661,336.51379a42.89929,42.89929 0 0 1 -4.3768,-1.56347c-3.84661,-1.15464 -8.93608,1.67272 -8.42335,5.656c0.34067,2.64657 2.80376,4.4309 4.164,6.72656c2.01724,3.40439 1.47946,7.72236 0.41941,11.5349a9.01737,9.01737 0 0 1 -1.45541,3.28195a11.11578,11.11578 0 0 1 -3.44688,2.47953a46.10307,46.10307 0 0 0 -13.4899,11.4604a3.3029,3.3029 0 0 0 -0.81466,1.53568c-0.18345,1.34489 1.16841,2.32458 1.93271,3.44628c1.69777,2.49171 0.47065,5.8446 0.63849,8.85506a2.5036,2.5036 0 0 0 1.05491,2.19658c1.02329,0.5198 2.23586,-0.36314 2.7905,-1.368c1.84062,-3.33468 0.45407,-8.6874 3.907,-10.29523c0.65316,-0.30414 1.445,-0.43236 1.88074,-1.00613c0.69131,-0.91021 0.02434,-2.25793 0.37468,-3.34588c0.526,-1.63348 2.76013,-1.70681 4.47468,-1.63436a25.39755,25.39755 0 0 0 8.72416,-1.16146a5.80725,5.80725 0 0 0 2.888,-1.67236c1.0322,-1.2882 0.94072,-3.11986 0.73447,-4.75764a64.49225,64.49225 0 0 0 -7.61951,-23.24965c3.03314,0.38746 6.33307,0.723 8.95044,-0.85772c1.46562,-0.88515 3.22315,-3.53215 2.49625,-5.33381c-1.14953,-2.84911 -3.22614,-0.45095 -5.80393,-0.92723z"/>
  <path id="svg_22" fill="#3f3d56" d="m596.21765,381.42033c0.363,1.94681 0.71982,3.99671 0.08181,5.87148s-2.64505,3.44124 -4.54026,2.8668c-1.47084,-0.44581 -2.32046,-1.92472 -3.36488,-3.05224c-5.80814,-6.27028 -18.91221,-2.64 -22.50023,-10.39738c-1.46435,-3.166 -0.46919,-6.959 -1.468,-10.30111a9.16886,9.16886 0 0 0 -9.28527,-6.30783a19.07985,19.07985 0 0 0 -5.34323,1.595a134.72654,134.72654 0 0 1 -35.4012,8.8543a29.08667,29.08667 0 0 0 -6.80218,1.23767c-4.9878,1.80826 -8.39581,6.4324 -10.82115,11.15106s-4.21585,9.82711 -7.4675,14.01934c-3.41736,4.4059 -8.20609,7.49115 -12.67306,10.82829a12.93011,12.93011 0 0 0 -4.18069,4.38171c-0.96841,1.98814 -0.91378,4.30065 -0.83861,6.51083l0.91295,26.84369c0.11743,3.45276 0.26488,7.02894 1.81022,10.11882c1.92972,3.85843 5.74182,6.38553 8.38641,9.794a19.18331,19.18331 0 0 1 3.9797,12.25056c-0.05629,1.77706 -0.23287,3.87893 1.15113,4.995a5.06175,5.06175 0 0 0 2.83036,0.814l36.31165,2.97192c6.38748,0.52278 13.46629,1.38234 17.63656,6.24877c1.96817,2.29673 3.54923,5.59956 6.56387,5.846c1.29309,0.10569 2.5513,-0.42512 3.84465,-0.52755c3.26305,-0.25843 6.1296,2.21818 7.93868,4.94608a21.94345,21.94345 0 0 1 3.52451,14.08047c-0.29663,3.11179 -1.26143,6.137 -1.46943,9.256c-0.79146,11.86777 9.26915,22.17857 9.46416,34.07111c0.11471,6.99531 -3.20608,13.5313 -6.44367,19.73336c5.22532,7.91591 0.94656,18.4569 3.02688,27.711c1.97365,8.77961 9.294,15.65282 11.11811,24.46471c0.83506,4.03407 0.88337,8.99841 4.44062,11.07616a10.12238,10.12238 0 0 0 5.02475,1.00609a66.24189,66.24189 0 0 0 30.16507,-6.86742c4.39862,-2.18276 8.95721,-5.44128 9.7254,-10.29125c0.6195,-3.91119 -1.36394,-8.28605 0.6546,-11.6929c2.379,-4.01531 8.47348,-3.697 11.9738,-6.78414c5.67861,-5.00824 1.25052,-14.55968 3.55132,-21.77323c2.06814,-6.4841 9.18735,-9.92886 12.71629,-15.74842a27.98563,27.98563 0 0 0 2.955,-8.00882a114.2435,114.2435 0 0 0 3.00656,-20.42635a122.43639,122.43639 0 0 1 0.92415,-12.51145c3.80475,-23.63775 27.17324,-39.466 34.76027,-62.174c0.72457,-2.16863 1.06484,-5.05722 -0.86443,-6.28433a5.52524,5.52524 0 0 0 -3.6742,-0.38455l-16.73885,2.11033c-2.0791,0.26212 -4.28291,0.50711 -6.19226,-0.35645s-3.27777,-3.279 -2.265,-5.11353c2.843,-5.14971 -3.00514,-11.65727 -5.60325,-16.93475a249.89411,249.89411 0 0 0 -24.88458,-40.35668a4.10206,4.10206 0 0 1 -1.091,-2.36876l4.75068,0.15818c-1.60365,-5.75439 -4.25013,-12.05139 -9.84064,-14.15637c-3.15023,-1.18615 -6.63887,-0.776 -10,-0.59234c-9.62716,0.52593 -19.94823,-0.92759 -29.47659,-2.40088z"/>
  <path id="svg_23" fill="#3f3d56" d="m625.70208,251.74458c2.5192,2.67527 5.34218,5.51171 8.98717,5.978c6.438,0.82367 11.06688,-5.83384 14.014,-11.6166a5.67618,5.67618 0 0 0 5.9231,5.25121a11.69277,11.69277 0 0 0 4.455,-1.74172a87.76547,87.76547 0 0 1 41.57892,-10.74849a4.49028,4.49028 0 0 1 3.429,-4.93638c2.95542,-0.58592 5.61763,1.96926 7.04331,4.62354s2.31465,5.73081 4.57974,7.71757s6.65047,1.90021 7.54516,-0.97683c0.85894,-2.76209 -2.01855,-5.11757 -4.40918,-6.746s-4.91044,-4.64241 -3.30054,-7.04556c12.21331,-2.70351 24.50238,-5.41726 36.99979,-5.95462a15.49384,15.49384 0 0 0 6.22815,-1.0729c1.90589,-0.93527 3.42074,-3.0583 2.90823,-5.11851a14.10379,14.10379 0 0 1 -14.71819,-5.55156c17.341,-1.431 35.785,-2.65073 51.15311,5.50893c1.84418,3.959 -7.555,7.25286 -5.0402,10.82367c0.80205,1.13886 2.40921,1.27242 3.8019,1.29827c10.67948,0.19828 21.4206,0.39271 31.97953,-1.21963c3.85868,-0.58921 7.75618,-1.421 11.63024,-0.94319c6.45273,0.79581 11.97173,5.10126 18.32,6.505c2.58381,0.57135 5.48094,0.5907 7.659,-0.91213s3.11429,-4.92479 1.32943,-6.87844c5.97714,-5.85812 15.89735,-4.40622 23.78266,-1.60164s15.35549,7.32743 23.70133,7.95258c5.98472,0.44829 12.0526,-1.16151 17.96623,-0.1383c3.71614,0.643 7.17469,2.29621 10.80669,3.3119c6.86932,1.921 14.1359,1.51549 21.26816,1.60794a149.0218,149.0218 0 0 1 53.10605,10.55252a15.78927,15.78927 0 0 1 5.90367,3.488c1.57334,1.68485 2.37574,4.303 1.31829,6.35142l-17.47272,-2.553c1.64627,3.24081 5.90527,3.79308 9.364,4.91109s7.0449,4.93759 4.9663,7.9196c-3.74756,-1.19324 -7.14361,2.55357 -9.03668,6.00094s-4.2,7.576 -8.12732,7.786c-3.51681,0.18806 -7.77007,-2.80646 -10.06239,-0.13277a68.62854,68.62854 0 0 1 8.0855,12.92662c2.26471,4.71812 3.87775,10.66311 0.81676,14.90809a3.864,3.864 0 0 1 -2.06585,1.602c-2.4999,0.63286 -4.12418,-2.42539 -5.917,-4.279c-2.25912,-2.33583 -5.6756,-2.99743 -8.73495,-4.0929s-6.28211,-3.25045 -6.52148,-6.49119c-0.14893,-2.01631 0.91563,-3.89065 1.69976,-5.75419a22.16956,22.16956 0 0 0 1.68445,-9.94358c-0.17165,-2.73525 -0.93862,-5.58051 -2.903,-7.49163s-5.35589,-2.51739 -7.46472,-0.767c-0.984,0.81673 -1.77259,2.12315 -3.05043,2.172c-2.25783,0.08638 -3.99138,-3.85 -5.80789,-2.50629a6.17209,6.17209 0 0 1 -0.8387,4.12789c-5.42063,4.71438 -13.748,2.71993 -20.73623,4.3853a38.92136,38.92136 0 0 0 -9.46064,4.13158a6.08717,6.08717 0 0 0 -2.70418,2.26983c-0.87231,1.69516 0.08944,3.86621 1.627,4.99333a12.91668,12.91668 0 0 0 5.36459,1.83107c8.5195,1.61352 17.16327,4.11131 23.88942,9.58345s11.137,14.5179 9.00854,22.92356l-16.80085,-16.05362q0.95718,10.11085 1.08638,20.2774a9.11644,9.11644 0 0 1 -0.53256,3.9003c-1.19773,2.64545 -4.44394,3.53567 -7.28856,4.11966a5.70921,5.70921 0 0 0 -4.38278,7.31476c1.01068,3.29431 3.53069,5.86271 5.83813,8.42193s4.57815,5.46788 4.88022,8.90047s-2.28766,7.30166 -5.72523,7.063c-2.60594,-0.18094 -4.5393,-2.51378 -5.65082,-4.87771s-1.7729,-4.99729 -3.443,-7.00589c-5.05494,-6.07956 -16.409,-3.47482 -20.93744,-9.95611a10.24126,10.24126 0 0 0 -2.11779,9.746c2.10671,-1.31884 4.99076,-0.09347 6.57359,1.82283s2.32954,4.37313 3.57257,6.52544c1.67734,2.9043 4.34677,5.479 4.5809,8.82472a28.84532,28.84532 0 0 0 0.06384,3.7953c0.41589,2.0272 2.12934,3.4828 3.31734,5.17725c2.76431,3.94272 2.62772,9.35907 0.846,13.83256s-4.98271,8.21152 -8.15324,11.83563c-5.53774,6.33 -11.18851,12.62289 -17.75369,17.87962c-1.87333,1.5 -3.8726,2.97492 -5.03934,5.072s-1.22657,5.04064 0.56634,6.63586c-1.28287,0.06425 -3.58355,0.69522 -4.86642,0.75947a113.14129,113.14129 0 0 1 -0.29339,-15.47719c-5.06262,-2.43088 -10.51361,4.07913 -9.86032,9.657s4.68766,10.054 7.56,14.87984c2.10049,3.529 3.66153,7.64391 2.96027,11.69042s-4.31335,7.77945 -8.40464,7.42256c-6.50767,-0.56766 -9.22974,-9.91006 -15.674,-10.97926a2.63321,2.63321 0 0 0 -1.696,0.16838c-0.95661,0.525 -1.12289,1.805 -1.1766,2.89487c-0.26365,5.34915 -0.49192,10.91093 1.5962,15.84273c3.05478,7.21493 10.94644,13.27462 9.291,20.93272c-8.91784,-4.14536 -13.55448,-14.14614 -15.65967,-23.7524s-2.45605,-19.691 -6.22975,-28.77234c-2.8655,3.67278 -8.88847,0.6366 -11.50661,-3.21642c-2.48213,-3.65287 -4.01035,-7.87845 -6.41852,-11.5805s-6.09728,-7.017 -10.509,-7.22056c-4.62546,-0.21346 -8.637,2.96071 -12.16483,5.95986c-2.90093,2.4662 -5.87931,5.02945 -7.575,8.43857c-2.46757,4.96088 -1.82209,10.80922 -1.941,16.34863c-0.12858,5.98861 -1.39774,12.30709 -5.47933,16.69121s-11.61531,5.91115 -16.1173,1.95995c-2.35035,-2.06281 -3.48835,-5.14477 -4.502,-8.1031a396.68427,396.68427 0 0 1 -12.18807,-43.51101c-0.75647,3.36049 -3.70732,7.69183 -6.52629,5.71231a5.8442,5.8442 0 0 1 -1.50354,-1.93722c-5.25831,-8.91217 -14.99614,-14.2578 -24.835,-17.463s-20.19059,-4.70029 -29.92034,-8.22288a75.78674,75.78674 0 0 1 -15.52117,-7.7314a12.20707,12.20707 0 0 0 -0.746,12.48676c2.15828,3.82156 7.04226,6.03267 11.223,4.69689c2.16045,-0.69029 3.98494,-2.19009 6.12862,-2.93084s5.02093,-0.377 5.95831,1.68832c0.89725,1.97685 -0.45894,4.36829 0.21381,6.43236c1.02464,3.14369 5.766,3.38589 7.42395,6.24663c1.23358,2.12847 0.21858,4.95491 -1.54274,6.67243s-4.1113,2.65952 -6.26134,3.85511c-6.97621,3.87928 -11.93713,10.50151 -18.03392,15.65374s-14.69866,8.91387 -21.96463,5.609c1.732,-8.77015 -8.715,-15.20895 -10.63689,-23.93945c-0.63259,-2.87357 -0.30466,-5.92608 -1.20778,-8.72642c-1.30756,-4.05445 -4.90466,-6.84213 -7.85557,-9.91467a38.91161,38.91161 0 0 1 -10.67287,-28.3102c0.15946,-3.60819 0.82236,-7.27515 0.00035,-10.79208s-3.7338,-6.92093 -7.342,-6.76154c-8.24107,0.364 -18.62305,0.977 -22.94678,-6.04816c-1.54315,-2.50731 -2.21469,-6.17955 0.01642,-8.10051c1.57391,-1.35511 3.89718,-1.22746 5.9641,-1.02413l18.56832,1.8266c4.34286,0.42722 9.03739,0.77979 12.76409,-1.4906s5.34151,-8.297 1.89073,-10.96811c-2.52136,-1.95171 -7.03872,-1.84588 -7.77165,-4.949c-0.61041,-2.58441 2.25017,-5.51674 0.70519,-7.67656c-1.10779,-1.54864 -3.59834,-1.119 -5.10753,0.04194s-2.60418,2.85872 -4.29321,3.73772c-2.96291,1.542 -6.50316,0.07446 -9.6909,-0.92292s-7.46125,-1.08208 -9.00743,1.87863c-1.7292,3.31119 1.53379,7.65 -0.18233,10.96795c-2.2689,4.38675 -9.95258,1.88949 -13.13906,5.66279c-3.65645,4.32983 2.48811,10.78622 1.255,16.31763a10.1577,10.1577 0 0 1 -10.00739,-0.56224a9.72033,9.72033 0 0 1 -4.20064,-9.05054c0.30523,-2.4883 1.60251,-5.02832 0.73329,-7.37976c-0.70278,-1.90118 -2.61164,-3.033 -4.38571,-4.01338l-18.04423,-9.97108c-1.67528,3.10774 0.44265,6.9605 3.09144,9.29471s5.96651,4.09225 7.70655,7.1642a9.40377,9.40377 0 0 1 -3.53854,12.39776a2.1708,2.1708 0 0 1 -1.78861,0.312a2.4953,2.4953 0 0 1 -1.16,-1.55988c-3.18374,-8.14738 -7.96377,-16.18036 -15.60589,-20.43642s-18.62306,-3.381 -23.63443,3.78855c-1.19031,1.70291 -1.98919,3.644 -3.02611,5.44441c-5.509,9.56533 -17.31937,14.09487 -28.3537,13.799a5.63043,5.63043 0 0 1 -3.09314,-0.72684c-1.78331,-1.23165 -1.703,-3.84517 -1.43,-5.99521l1.15826,-9.12428c0.23259,-1.83222 0.56962,-3.85742 2.01978,-5.00116c2.04417,-1.61224 4.993,-0.5948 7.59623,-0.63229a9.62676,9.62676 0 0 0 8.738,-6.74362a10.84933,10.84933 0 0 0 -3.02046,-10.78926c-1.19315,-1.12066 -2.79462,-2.52837 -2.16442,-4.03911a3.33909,3.33909 0 0 1 2.3416,-1.57681c4.67608,-1.35792 9.617,-1.71384 14.21512,-3.31608s9.0573,-4.88037 10.14623,-9.6263c0.33371,-1.45441 0.48564,-3.21624 1.79205,-3.93732a5.37372,5.37372 0 0 1 2.071,-0.42313a10.07754,10.07754 0 0 0 8.64425,-10.50577c2.20364,-1.53979 5.291,-0.40712 7.42286,1.23062s4.014,3.80148 6.608,4.50746c4.83414,1.3157 9.5058,-2.96444 14.51574,-2.98428c2.10683,-0.00834 4.28782,0.73659 6.26989,0.02231c2.00933,-0.72411 3.20926,-2.7243 4.75141,-4.202s4.24806,-2.379 5.67206,-0.78714l-1.21261,-8.982a17.65786,17.65786 0 0 0 14.37055,-2.5981l-15.672,-5.29531a3.40736,3.40736 0 0 1 -1.46551,-0.78358c-1.13939,-1.2269 -0.00768,-3.1388 0.91883,-4.53347c2.21645,-3.33642 2.58852,-8.83231 -1.05637,-10.49336c-2.48789,-1.13378 -5.34358,0.22716 -7.73152,1.55863l-11.43859,6.37795c-0.3635,2.17427 2.29537,3.40652 3.943,4.87108a6.61107,6.61107 0 0 1 -4.3112,11.55174a8.23769,8.23769 0 0 1 1.47117,6.984l-7.69617,0.55351a3.33426,3.33426 0 0 1 -2.49618,-0.4872c-0.82313,-0.73105 -0.7115,-2.01211 -0.90228,-3.09635c-0.46046,-2.61692 -3.0229,-4.45106 -5.63806,-4.92135s-5.29053,0.13252 -7.88012,0.72774a4.703,4.703 0 0 1 -3.38729,-0.07817a3.3824,3.3824 0 0 1 -1.34008,-1.69143c-1.13531,-2.75275 -0.07412,-5.98837 1.74928,-8.34246s4.31952,-4.075 6.5613,-6.03479a38.24257,38.24257 0 0 0 11.37146,-17.63761c4.23676,-1.77513 8.623,-4.187 12.85971,-5.96217a39.35045,39.35045 0 0 1 21.15126,-4.09809l14.34808,0.27406c4.248,0.08114 8.61091,0.18511 12.53894,1.8046s7.37949,5.12222 7.65068,9.36234a2.87395,2.87395 0 0 1 -0.92,2.62744a3.38952,3.38952 0 0 1 -1.814,0.40888c-3.96177,0.13923 -5.65093,1.12637 -9.61261,1.26555z"/>
  <path id="svg_24" fill="#3f3d56" d="m511.33861,296.712a4.19848,4.19848 0 0 0 1.14487,-4.22261a7.85348,7.85348 0 0 0 -8.13191,1.53554a13.70974,13.70974 0 0 0 -2.17858,2.8801c-1.88539,3.076 -3.553,6.75021 -2.46035,10.18862a2.89439,2.89439 0 0 0 1.32464,1.81177a3.48245,3.48245 0 0 0 1.544,0.24185a51.7614,51.7614 0 0 0 6.21361,-0.38244c1.26609,-0.1548 2.73663,-0.51234 3.22593,-1.69027c0.64319,-1.5484 -0.91358,-3.30074 -0.45975,-4.91483a5.36939,5.36939 0 0 1 1.32582,-1.89868a2.51014,2.51014 0 0 0 0.7819,-2.10731c-0.18315,-0.75735 -1.34281,-1.187 -1.76026,-0.529"/>
  <path id="svg_25" fill="#3f3d56" d="m522.10879,282.74866a17.38476,17.38476 0 0 0 -5.63067,-0.35359a2.45549,2.45549 0 0 0 -1.19979,0.27266a2.00179,2.00179 0 0 0 -0.73936,1.07069a5.31932,5.31932 0 0 0 3.0969,6.51863a6.65526,6.65526 0 0 1 1.92043,0.77174c1.59252,1.23559 0.5773,3.76114 0.87877,5.7541c0.33852,2.23792 2.50476,4.11641 2.1076,6.34467c-0.31289,1.75549 -2.18785,3.14554 -1.886,4.903c0.31617,1.84067 2.65189,2.39377 4.51369,2.54117a5.67657,5.67657 0 0 0 3.19791,-0.36651a4.95168,4.95168 0 0 0 2.01759,-2.92189a18.72866,18.72866 0 0 0 0.94353,-7.052a6.687,6.687 0 0 0 -0.7952,-3.11257a17.37836,17.37836 0 0 0 -1.85827,-2.12786c-3.56704,-4.14921 0.18883,-10.33827 -6.56713,-12.24224z"/>
  <path id="svg_26" opacity="0.8" stroke-width="2" stroke-miterlimit="10" stroke="#f9a825" fill="none" d="m991.17056,607.78415s-273.2014,-156.82256 -390.81832,-127.10881c0,0 -249.26532,26.82491 -278.15369,85.83971c0,0 -79.23666,-247.61456 -108.125,-255.86838"/>
  <path id="svg_27" opacity="0.8" stroke-width="2" stroke-miterlimit="10" stroke="#f9a825" fill="none" d="m322.19855,566.51505c45.8087,-122.15651 458.49963,-257.51914 458.49963,-257.51914c-58.6021,14.85687 -180.34594,171.67943 -180.34594,171.67943s-257.51916,-187.36169 -386.27871,-170.02867c0,0 567.03734,18.57109 777.097,297.13748"/>
  <circle id="svg_28" fill="#f9a825" r="11.96804" cy="310.64667" cx="214.07353"/>
  <circle id="svg_29" fill="#f9a825" r="11.96804" cy="566.51505" cx="322.19856"/>
  <circle id="svg_30" fill="#f9a825" r="11.96804" cy="308.99591" cx="780.69818"/>
  <circle id="svg_31" fill="#f9a825" r="11.96804" cy="607.78414" cx="991.17056"/>
  <circle id="svg_32" fill="#f9a825" r="11.96804" cy="480.67534" cx="600.35225"/>
 </g>
</svg>